HIERARCHY
ROOT Hips
{
	OFFSET 0.00000 0.00000 0.00000
	CHANNELS 6 Xposition Yposition Zposition Zrotation Yrotation Xrotation 
	JOINT LHipJoint
	{
		OFFSET 0 0 0
		CHANNELS 3 Zrotation Yrotation Xrotation
		JOINT LeftUpLeg
		{
			OFFSET 1.57358 -1.76629 0.73362
			CHANNELS 3 Zrotation Yrotation Xrotation
			JOINT LeftLeg
			{
				OFFSET 2.40600 -6.61045 0.00000
				CHANNELS 3 Zrotation Yrotation Xrotation
				JOINT LeftFoot
				{
					OFFSET 2.66168 -7.31291 0.00000
					CHANNELS 3 Zrotation Yrotation Xrotation
					JOINT LeftToeBase
					{
						OFFSET 0.20870 -0.57341 2.12506
						CHANNELS 3 Zrotation Yrotation Xrotation
						End Site
						{
							OFFSET 0.00000 -0.00000 1.10557
						}
					}
				}
			}
		}
	}
	JOINT RHipJoint
	{
		OFFSET 0 0 0
		CHANNELS 3 Zrotation Yrotation Xrotation
		JOINT RightUpLeg
		{
			OFFSET -1.49299 -1.76629 0.73362
			CHANNELS 3 Zrotation Yrotation Xrotation
			JOINT RightLeg
			{
				OFFSET -2.43663 -6.69460 0.00000
				CHANNELS 3 Zrotation Yrotation Xrotation
				JOINT RightFoot
				{
					OFFSET -2.62959 -7.22474 0.00000
					CHANNELS 3 Zrotation Yrotation Xrotation
					JOINT RightToeBase
					{
						OFFSET -0.25784 -0.70841 2.21862
						CHANNELS 3 Zrotation Yrotation Xrotation
						End Site
						{
							OFFSET -0.00000 -0.00000 1.16452
						}
					}
				}
			}
		}
	}
	JOINT LowerBack
	{
		OFFSET 0 0 0
		CHANNELS 3 Zrotation Yrotation Xrotation
		JOINT Spine
		{
			OFFSET -0.00034 2.12399 -0.25450
			CHANNELS 3 Zrotation Yrotation Xrotation
			JOINT Spine1
			{
				OFFSET 0.05594 2.14379 -0.03318
				CHANNELS 3 Zrotation Yrotation Xrotation
				JOINT Neck
				{
					OFFSET 0 0 0
					CHANNELS 3 Zrotation Yrotation Xrotation
					JOINT Neck1
					{
						OFFSET -0.09835 1.62725 0.24211
						CHANNELS 3 Zrotation Yrotation Xrotation
						JOINT Head
						{
							OFFSET 0.10849 1.66041 -0.22648
							CHANNELS 3 Zrotation Yrotation Xrotation
							End Site
							{
								OFFSET 0.04385 1.68267 -0.10541
							}
						}
					}
				}
				JOINT LeftShoulder
				{
					OFFSET 0 0 0
					CHANNELS 3 Zrotation Yrotation Xrotation
					JOINT LeftArm
					{
						OFFSET 3.29108 0.79398 -0.68179
						CHANNELS 3 Zrotation Yrotation Xrotation
						JOINT LeftForeArm
						{
							OFFSET 5.15310 -0.00000 -0.00000
							CHANNELS 3 Zrotation Yrotation Xrotation
							JOINT LeftHand
							{
								OFFSET 3.75138 -0.00000 -0.00000
								CHANNELS 3 Zrotation Yrotation Xrotation
								JOINT LeftFingerBase
								{
									OFFSET 0 0 0
									CHANNELS 3 Zrotation Yrotation Xrotation
									JOINT LeftHandIndex1
									{
										OFFSET 0.52917 -0.00000 0.00000
										CHANNELS 3 Zrotation Yrotation Xrotation
										End Site
										{
											OFFSET 0.42663 -0.00000 0.00000
										}
									}
								}
								JOINT LThumb
								{
									OFFSET 0 0 0
									CHANNELS 3 Zrotation Yrotation Xrotation
									End Site
									{
										OFFSET 0.43315 -0.00000 0.43315
									}
								}
							}
						}
					}
				}
				JOINT RightShoulder
				{
					OFFSET 0 0 0
					CHANNELS 3 Zrotation Yrotation Xrotation
					JOINT RightArm
					{
						OFFSET -3.07414 1.06285 -0.44338
						CHANNELS 3 Zrotation Yrotation Xrotation
						JOINT RightForeArm
						{
							OFFSET -5.29613 -0.00000 0.00000
							CHANNELS 3 Zrotation Yrotation Xrotation
							JOINT RightHand
							{
								OFFSET -3.76144 -0.00000 -0.00000
								CHANNELS 3 Zrotation Yrotation Xrotation
								JOINT RightFingerBase
								{
									OFFSET 0 0 0
									CHANNELS 3 Zrotation Yrotation Xrotation
									JOINT RightHandIndex1
									{
										OFFSET -0.74732 -0.00000 0.00000
										CHANNELS 3 Zrotation Yrotation Xrotation
										End Site
										{
											OFFSET -0.60251 -0.00000 0.00000
										}
									}
								}
								JOINT RThumb
								{
									OFFSET 0 0 0
									CHANNELS 3 Zrotation Yrotation Xrotation
									End Site
									{
										OFFSET -0.61171 -0.00000 0.61171
									}
								}
							}
						}
					}
				}
			}
		}
	}
}
MOTION
Frames: 9
Frame Time: .0083333
12.425200 17.145400 -30.793800 -0.525800 -7.140500 -0.967600 0.000000 0.000000 0.000000 -16.665800 -7.865300 -26.394600 2.710900 10.211700 29.664900 -0.012300 -3.413800 -1.726400 0.030900 -1.134000 -3.117600 0.000000 0.000000 0.000000 24.805600 4.605400 6.784800 -6.922200 -15.266000 48.579600 -1.088000 -0.373700 19.602700 -0.447000 -4.289700 11.893000 1.093300 2.001000 6.255600 1.973800 2.811700 0.150100 1.167100 1.394800 -3.398000 -9.448900 -3.499400 -11.064800 4.972400 -4.054500 20.336100 2.815900 -2.154500 8.445900 -0.000000 0.000000 0.000000 -92.289400 9.546900 10.022300 11.705400 -19.361300 -2.003500 -0.000000 -0.000000 17.570300 8.583600 40.289900 5.574900 -7.125000 0.000000 -0.000000 -36.921800 67.085700 -20.768000 -0.000000 0.000000 0.000000 83.700300 -1.816100 16.626100 -33.804600 43.939400 -13.977300 0.000000 -0.000000 -2.564600 -18.378100 10.539800 -3.477700 7.125000 -0.000000 -0.000000 6.131500 -18.922000 3.833800
12.427500 17.180300 -30.533100 0.119900 -7.400500 -1.306500 0.000000 0.000000 0.000000 -17.791700 -6.982000 -25.463300 2.758400 10.293300 29.931800 -0.013500 -3.939100 -2.141700 0.041400 -1.314000 -3.613200 0.000000 0.000000 0.000000 23.965600 5.316500 5.167200 -7.802900 -15.972300 51.849500 -1.347500 -0.902300 21.676700 -0.578000 -4.868300 13.533300 0.616100 2.138200 6.438600 1.731200 2.949100 0.414700 1.169800 1.468700 -3.239900 -9.256300 -3.625200 -12.004900 4.836400 -4.156300 20.681800 2.718300 -2.192200 8.737000 0.000000 -0.000000 0.000000 -92.193400 9.164900 9.746000 11.684600 -19.330000 -1.996700 -0.000000 -0.000000 17.375500 10.933500 32.179500 5.874000 -7.125000 0.000000 -0.000000 -24.731700 60.910400 -9.935400 0.000000 -0.000000 0.000000 84.066200 -1.854500 16.221900 -34.040100 44.114400 -14.140900 0.000000 -0.000000 -2.916000 -18.640100 10.437600 -3.497000 7.125000 -0.000000 -0.000000 5.945500 -19.010400 3.704500
12.422600 17.208700 -30.286200 0.615400 -7.578200 -1.582500 0.000000 0.000000 0.000000 -18.670600 -6.326900 -24.575800 2.792100 10.350700 30.120100 -0.012500 -4.364800 -2.548600 0.019700 -0.905400 -2.488600 0.000000 0.000000 0.000000 23.369200 5.947000 3.532000 -8.696500 -16.608400 55.034600 -1.381400 -1.523900 21.779300 -0.614900 -5.018500 13.961400 0.088500 2.121900 6.583400 1.677400 2.883900 0.690900 1.415800 1.442400 -3.057600 -9.212800 -3.522200 -12.966700 4.655600 -3.895500 21.023300 2.672700 -2.076300 9.007500 0.000000 -0.000000 0.000000 -92.365400 8.819100 9.325800 11.761700 -19.446300 -2.022200 -0.000000 -0.000000 17.077100 11.738300 27.802000 5.535600 -7.125000 0.000000 -0.000000 -20.522200 57.082400 -6.254100 0.000000 -0.000000 0.000000 84.150500 -1.656900 16.333500 -34.069800 44.136400 -14.161700 0.000000 -0.000000 -3.185700 -18.939600 10.077200 -3.436100 7.125000 -0.000000 -0.000000 5.730800 -19.366700 3.523700
12.419800 17.233500 -30.038100 1.219700 -7.699400 -1.796200 0.000000 0.000000 0.000000 -19.579900 -6.202300 -23.586300 2.812100 10.384500 30.231200 0.008300 -3.755200 -2.985000 0.000100 -0.056100 -0.154100 0.000000 0.000000 0.000000 22.589000 6.433400 1.740400 -9.586400 -17.170600 58.097000 -1.274700 -2.355100 20.697700 -0.607700 -4.989700 13.879200 -0.416800 1.983100 6.713100 1.537600 2.655800 0.872300 1.575000 1.333100 -2.953000 -9.317800 -3.337200 -13.692000 4.640200 -3.538200 21.045900 2.722000 -1.910400 9.124300 -0.000000 -0.000000 0.000000 -92.535400 8.364600 8.656400 11.783100 -19.478600 -2.029400 -0.000000 -0.000000 17.063700 11.759800 27.598300 5.508700 -7.125000 0.000000 -0.000000 -20.366100 56.896500 -6.111100 -0.000000 -0.000000 0.000000 84.254400 -1.479300 16.682300 -33.789300 43.928000 -13.966700 0.000000 -0.000000 -3.102600 -18.766100 9.977200 -3.368900 7.125000 -0.000000 -0.000000 5.853600 -19.483300 3.584700
12.417300 17.260700 -29.792800 1.676300 -7.686300 -1.837900 0.000000 0.000000 0.000000 -20.364300 -6.298200 -22.547300 2.820400 10.398500 30.277000 0.039400 -2.799000 -3.768300 0.000800 -0.184900 -0.508100 0.000000 0.000000 0.000000 21.949600 6.831400 -0.227100 -10.433800 -17.646700 60.928600 -1.100600 -2.935800 19.067300 -0.534000 -4.682300 13.004500 -0.684800 1.825000 6.649800 1.432100 2.415500 1.477500 1.652100 1.209300 -2.292100 -9.526800 -3.450500 -16.041300 4.597400 -3.399000 21.312500 2.743800 -1.842000 9.648500 -0.000000 -0.000000 0.000000 -92.640700 6.586000 8.350800 11.598900 -19.200400 -1.968400 -0.000000 -0.000000 17.347500 11.407600 29.398700 5.656500 -7.125000 0.000000 -0.000000 -21.978900 58.492300 -7.483400 -0.000000 -0.000000 0.000000 84.336300 -0.229000 16.836800 -33.276300 43.541300 -13.612000 0.000000 -0.000000 -2.925100 -18.479800 9.998300 -3.320800 7.125000 -0.000000 -0.000000 6.057300 -19.480600 3.711200
12.411300 17.290600 -29.567000 2.116400 -7.529700 -1.957800 0.000000 0.000000 0.000000 -21.162500 -6.249500 -21.464200 2.805300 10.373000 30.193400 0.067200 -3.043800 -4.765000 0.017100 -0.845500 -2.323800 0.000000 0.000000 0.000000 21.307100 7.002700 -2.213600 -11.190600 -18.027100 63.398900 -0.891700 -3.368600 17.028100 -0.355900 -3.832500 10.606000 -1.108100 1.645800 7.227500 1.256000 2.146500 0.565600 1.700900 1.091700 -3.555800 -9.225100 -3.068200 -13.162400 4.411900 -3.180700 20.771200 2.672500 -1.762700 8.898900 -0.000000 -0.000000 0.000000 -92.321100 8.060700 8.401700 11.358100 -18.835100 -1.889900 -0.000000 -0.000000 16.807300 12.210100 28.396900 5.875700 -7.125000 0.000000 -0.000000 -20.442900 57.737500 -6.555600 -0.000000 -0.000000 0.000000 84.705300 -2.160200 17.247000 -33.023800 43.348300 -13.438400 0.000000 -0.000000 -2.791500 -18.609100 9.843200 -3.294400 7.125000 -0.000000 -0.000000 5.964900 -19.634000 3.633400
12.411100 17.321200 -29.316800 2.480600 -7.866300 -2.151800 0.000000 0.000000 0.000000 -21.809500 -6.010000 -20.194700 2.768000 10.309600 29.985300 0.104900 -2.471500 -5.760000 0.020800 -0.931000 -2.558900 0.000000 0.000000 0.000000 20.692400 7.422200 -3.934400 -11.826500 -18.316400 65.437900 -0.703900 -4.032500 14.998600 -0.248800 -3.209300 8.862100 -1.054800 1.703100 8.314300 0.852300 2.206600 -0.149300 1.203900 1.126800 -4.893300 -8.718000 -2.910500 -12.613500 4.319500 -3.118100 21.195700 2.572300 -1.716100 8.925800 0.000000 -0.000000 0.000000 -91.587000 8.889000 8.977200 11.147000 -18.513200 -1.822300 -0.000000 -0.000000 16.417900 12.439300 29.048400 6.113300 -7.125000 0.000000 -0.000000 -20.663500 58.394700 -6.960700 0.000000 -0.000000 0.000000 85.444300 -3.598000 17.310000 -32.724500 43.117200 -13.233400 0.000000 -0.000000 -2.567300 -18.603300 9.625800 -3.221400 7.125000 -0.000000 -0.000000 5.968600 -19.861700 3.605200
12.423100 17.357700 -29.029600 2.823200 -8.825400 -2.440400 0.000000 0.000000 0.000000 -22.477000 -5.392300 -18.617500 2.709500 10.209300 29.657100 0.152000 -1.522700 -6.989500 0.026700 -1.055600 -2.901900 0.000000 0.000000 0.000000 20.034200 8.249000 -5.255600 -12.339400 -18.530500 67.060700 -0.549800 -4.736000 13.197100 -0.298600 -3.513400 9.711500 -1.384600 1.997500 6.808700 1.057100 2.587900 0.951600 1.626400 1.307000 -2.942600 -8.954700 -3.001900 -13.435800 3.977700 -3.023000 20.698600 2.494000 -1.708500 8.902500 -0.000000 -0.000000 0.000000 -91.987600 6.930100 9.288600 10.924800 -18.172900 -1.752400 -0.000000 -0.000000 17.063100 12.223600 30.799700 6.329800 -7.125000 0.000000 -0.000000 -22.214300 59.964800 -8.359300 -0.000000 -0.000000 0.000000 85.036100 -2.162700 17.077900 -31.927300 42.489200 -12.691700 0.000000 -0.000000 -2.342100 -18.402200 9.199900 -3.044800 7.125000 -0.000000 -0.000000 6.112800 -20.319400 3.630200
12.416200 17.389300 -28.795900 3.085400 -8.758700 -2.849200 0.000000 0.000000 0.000000 -23.035900 -5.119800 -17.114200 2.656200 10.116500 29.354900 0.185800 -1.517400 -7.750900 0.031000 -1.136400 -3.124100 0.000000 0.000000 0.000000 19.552300 8.152900 -6.790700 -12.787300 -18.704000 68.463500 -0.414100 -5.163500 11.484900 -0.338800 -3.740600 10.347900 -1.788600 1.868300 6.694400 1.242700 2.392200 1.395500 2.075100 1.206100 -2.437200 -9.255300 -2.923100 -13.301800 3.820500 -2.814100 20.191100 2.510900 -1.642600 8.694300 0.000000 -0.000000 0.000000 -92.226500 5.829200 9.068000 10.568200 -17.623500 -1.642800 -0.000000 -0.000000 17.418700 12.927400 28.386800 6.227800 -7.125000 0.000000 -0.000000 -19.700600 57.882200 -6.374200 0.000000 -0.000000 0.000000 84.785200 -1.589500 17.146200 -31.108600 41.824900 -12.142200 0.000000 -0.000000 -1.998500 -18.156200 9.278500 -3.026700 7.125000 -0.000000 -0.000000 6.288800 -20.252300 3.745500
